Patient4_TMGait_0pt4_02_right_44_GRF.mot
version=1
nRows=65
nColumns=19
inDegrees=no
endheader
time	F1x	F1y	F1z	M1x	M1y	M1z	F2x	F2y	F2z	M2x	M2y	M2z	EC1x	EC1y	EC1z	EC2x	EC2y	EC2z
57.98	-4.0776	754.3775	65.8238	-288.3096	-67.5602	802.9237	-2.1357	14.5264	0.93958	3.6163	1.6087	9.0812	-0.0592	0.0182	-0.0073	-0.0462	0.0165	0.9585
57.9934	-4.07	751.4461	65.9312	-285.8386	-67.4979	795.8832	-1.5829	10.037	0.65056	2.5264	1.1492	6.4087	-0.0592	0.0182	-0.0073	-0.0462	0.0165	0.9585
58.0069	-3.4871	747.402	65.8471	-283.0244	-66.9391	787.6084	-1.1248	6.3281	0.39401	1.633	0.76911	4.2716	-0.0592	0.0182	-0.0073	-0.0462	0.0165	0.9585
58.0203	-2.3461	742.8126	65.6164	-280.1458	-65.9408	778.8597	-0.79453	3.5892	0.19061	0.97839	0.49189	2.7614	-0.0592	0.0182	-0.0073	-0.0462	0.0165	0.9585
58.0337	-0.7574	738.4334	65.286	-277.5043	-64.6102	770.4991	-0.56879	1.7648	0.050159	0.54805	0.30894	1.799	-0.0592	0.0182	-0.0073	-0.0462	0.0165	0.9585
58.0471	1.1581	734.9976	64.9051	-275.3668	-63.0601	763.2985	-0.45713	0.68785	-0.039143	0.30019	0.2169	1.2699	-0.0592	0.0182	-0.0073	-0.0462	0.0165	0.9585
58.0606	3.3063	733.0644	64.4844	-273.9184	-61.355	757.8123	-0.43263	0.14272	-0.091098	0.17941	0.19322	1.0229	-0.0592	0.0182	-0.0073	-0.0462	0.0165	0.9585
58.074	5.6103	732.9213	64.0566	-273.2292	-59.5703	754.3071	-0.46947	-0.086284	-0.12586	0.12771	0.22226	0.90637	-0.0592	0.0182	-0.0073	-0.0462	0.0165	0.9585
58.0874	8.0214	734.565	63.6595	-273.2577	-57.7747	752.7381	-0.57078	-0.2091	-0.15453	0.087491	0.2914	0.76673	-0.0592	0.0182	-0.0073	-0.0462	0.0165	0.9585
58.1009	10.463	737.7789	63.3357	-273.8842	-56.0507	752.8691	-0.70674	-0.41219	-0.18574	0.0053434	0.3854	0.44317	-0.0592	0.0182	-0.0073	-0.0462	0.0165	0.9585
58.1143	12.8674	742.199	63.1183	-274.9424	-54.4708	754.3153	-0.87076	-0.82882	-0.22399	-0.16114	0.49491	-0.16595	-0.0592	0.0182	-0.0073	-0.0462	0.0165	0.9585
58.1277	15.1956	747.3685	63.0445	-276.2411	-53.0998	756.6054	-1.0432	-1.5973	-0.26556	-0.45374	0.6014	-1.1925	-0.0592	0.0182	-0.0073	-0.0462	0.0165	0.9585
58.1411	17.4556	752.7606	63.1372	-277.572	-51.9626	759.1945	-1.1936	-2.7905	-0.30435	-0.89564	0.68544	-2.6956	-0.0592	0.0182	-0.0073	-0.0462	0.0165	0.9585
58.1546	19.6977	757.8017	63.4173	-278.716	-51.0602	761.4746	-1.2495	-4.3826	-0.32301	-1.4779	0.70545	-4.6313	-0.0592	0.0182	-0.0073	-0.0462	0.0165	0.9585
58.168	21.9698	761.9105	63.8937	-279.4548	-50.3777	762.8452	-1.1092	-6.2425	-0.30509	-2.1523	0.6082	-6.8519	-0.0592	0.0182	-0.0073	-0.0462	0.0165	0.9585
58.1814	24.3365	764.5184	64.5727	-279.5783	-49.8966	762.7257	-0.6676	-8.043	-0.22227	-2.801	0.32336	-8.9763	-0.0592	0.0182	-0.0073	-0.0462	0.0165	0.9585
58.1949	26.8019	765.1209	65.4452	-278.9014	-49.6054	760.6375	0.24241	-9.2123	-0.059102	-3.2169	-0.22421	-10.351	-0.0592	0.0182	-0.0073	-0.0462	0.0165	0.9585
58.2083	29.3327	763.3821	66.4894	-277.3059	-49.4949	756.2843	1.7756	-8.8635	0.21339	-3.0796	-1.1149	-9.9434	-0.0592	0.0182	-0.0073	-0.0462	0.0165	0.9585
58.2217	31.8908	759.2213	67.6571	-274.7779	-49.53	749.6297	4.0636	-5.7794	0.61295	-1.9476	-2.4027	-6.3349	-0.0592	0.0182	-0.0073	-0.0462	0.0165	0.9585
58.2351	34.4179	752.8034	68.8728	-271.3997	-49.6518	740.8946	7.1599	1.587	1.1486	0.73872	-4.1023	2.2823	-0.0592	0.0182	-0.0073	-0.0462	0.0165	0.9585
58.2486	36.8726	744.3889	70.0293	-267.2945	-49.7706	730.3825	10.9409	14.9888	1.789	5.6115	-6.1266	17.9615	-0.0592	0.0182	-0.0073	-0.0462	0.0165	0.9585
58.262	39.1929	734.1621	70.9974	-262.5552	-49.788	718.3249	15.0083	36.073	2.4571	13.2659	-8.2364	42.6375	-0.0592	0.0182	-0.0073	-0.0462	0.0165	0.9585
58.2754	41.3051	722.0243	71.6051	-257.1742	-49.5737	704.6741	18.5237	65.915	2.9921	24.0865	-9.9427	77.5885	-0.0592	0.0182	-0.0073	-0.0462	0.0165	0.9585
58.2889	43.0959	707.4865	71.6376	-251.009	-48.9702	689.0032	20.1075	104.2214	3.132	37.9598	-10.447	122.4809	-0.0592	0.0182	-0.0073	-0.0462	0.0165	0.9585
58.3023	44.4337	689.725	70.8504	-243.7996	-47.7991	670.5462	17.9636	148.4936	2.4938	53.972	-8.6914	174.4261	-0.0592	0.0182	-0.0073	-0.0462	0.0165	0.9585
58.3157	45.2154	667.805	69.0324	-235.2506	-45.9034	648.3929	11.7516	194.6005	0.70332	70.5939	-4.162	228.6765	-0.0592	0.0182	-0.0073	-0.0462	0.0165	0.9585
58.3291	45.3591	641.0633	66.0844	-225.1573	-43.2194	621.8676	3.1731	237.9589	-2.2375	86.153	2.49	279.7722	-0.0592	0.0182	-0.0073	-0.0462	0.0165	0.9585
58.3426	44.8532	609.166	62.109	-213.4173	-39.8457	590.5765	-5.7719	275.4466	-6.0722	99.5257	10.2268	323.8355	-0.0592	0.0182	-0.0073	-0.0462	0.0165	0.9585
58.356	43.7073	572.0625	57.3171	-200.0121	-35.9701	554.4064	-13.899	306.8724	-10.1993	110.6617	17.9358	360.4926	-0.0592	0.0182	-0.0073	-0.0462	0.0165	0.9585
58.3694	41.9462	530.0191	51.9555	-185.0226	-31.8047	513.5699	-20.6558	334.1539	-14.1441	120.269	24.8858	391.9551	-0.0592	0.0182	-0.0073	-0.0462	0.0165	0.9585
58.3829	39.5993	483.631	46.2277	-168.64	-27.5201	468.6195	-25.9404	359.8909	-17.6209	129.2902	30.7339	421.2813	-0.0592	0.0182	-0.0073	-0.0462	0.0165	0.9585
58.3963	36.6501	433.7986	40.2807	-151.1576	-23.2506	420.4209	-29.8003	386.4711	-20.6396	138.5769	35.5297	451.231	-0.0592	0.0182	-0.0073	-0.0462	0.0165	0.9585
58.4097	33.0454	381.6396	34.2809	-132.9394	-19.1614	370.0449	-32.382	415.855	-23.4444	148.8048	39.6285	484.059	-0.0592	0.0182	-0.0073	-0.0462	0.0165	0.9585
58.4231	28.7029	328.4602	28.4279	-114.4126	-15.4592	318.7496	-33.9633	449.4189	-26.4743	160.4198	43.6309	521.3775	-0.0592	0.0182	-0.0073	-0.0462	0.0165	0.9585
58.4366	23.6002	275.7543	22.9465	-96.0704	-12.3556	267.9636	-34.8723	487.6613	-30.152	173.5557	48.1307	563.7982	-0.0592	0.0182	-0.0073	-0.0462	0.0165	0.9585
58.45	17.8546	225.1699	18.0439	-78.4696	-10	219.2401	-35.5111	530.1293	-34.8096	188.0155	53.6284	610.8698	-0.0592	0.0182	-0.0073	-0.0462	0.0165	0.9585
58.4634	11.7642	178.3528	13.8562	-62.1769	-8.4097	174.1299	-36.2279	575.6218	-40.4922	203.3635	60.2863	661.2525	-0.0592	0.0182	-0.0073	-0.0462	0.0165	0.9585
58.4769	5.816	136.6778	10.441	-47.6701	-7.464	133.9129	-37.248	622.5254	-46.9483	219.0462	67.8847	713.1223	-0.0592	0.0182	-0.0073	-0.0462	0.0165	0.9585
58.4903	0.5455	100.9859	7.7626	-35.244	-6.9378	99.3746	-38.6139	668.8818	-53.6563	234.4188	75.8464	764.2401	-0.0592	0.0182	-0.0073	-0.0462	0.0165	0.9585
58.5037	-3.6112	71.4928	5.7304	-24.9754	-6.5916	70.7274	-40.221	712.4634	-60.0708	248.7538	83.5127	812.066	-0.0592	0.0182	-0.0073	-0.0462	0.0165	0.9585
58.5171	-6.3712	47.9107	4.2051	-16.7657	-6.1943	47.7171	-41.9046	751.0011	-65.7321	261.3049	90.3045	854.036	-0.0592	0.0182	-0.0073	-0.0462	0.0165	0.9585
58.5306	-7.6374	29.6907	3.0236	-10.4257	-5.5605	29.8535	-43.4923	782.4547	-70.3445	271.4013	95.8254	887.8532	-0.0592	0.0182	-0.0073	-0.0462	0.0165	0.9585
58.544	-7.5066	16.2055	2.0652	-5.7369	-4.6213	16.5651	-44.8571	805.3618	-73.7282	278.565	99.8306	911.8885	-0.0592	0.0182	-0.0073	-0.0462	0.0165	0.9585
58.5574	-6.3704	6.8618	1.2836	-2.4879	-3.4836	7.3001	-45.8434	819.0415	-75.8238	282.5852	102.205	925.3836	-0.0592	0.0182	-0.0073	-0.0462	0.0165	0.9585
58.5709	-4.8187	1.0426	0.6926	-0.45589	-2.3759	1.4771	-46.309	823.6647	-76.6525	283.5422	102.9282	928.5366	-0.0592	0.0182	-0.0073	-0.0462	0.0165	0.9585
58.5843	-3.2428	-2.0686	0.28903	0.63975	-1.4391	-1.6776	-46.1429	820.227	-76.308	281.7956	102.0707	922.4692	-0.0592	0.0182	-0.0073	-0.0462	0.0165	0.9585
58.5977	-1.8755	-3.2802	0.037574	1.0769	-0.72127	-2.934	-45.2699	810.443	-74.9515	277.9415	99.7961	909.0916	-0.0592	0.0182	-0.0073	-0.0462	0.0165	0.9585
58.6111	-0.80009	-3.2936	-0.092869	1.0974	-0.22374	-2.9941	-43.6838	796.4378	-72.819	272.7049	96.3786	890.7612	-0.0592	0.0182	-0.0073	-0.0462	0.0165	0.9585
58.6246	-0.031366	-2.6518	-0.14261	0.88895	0.087176	-2.395	-41.4331	780.4168	-70.1839	266.8302	92.1527	869.9142	-0.0592	0.0182	-0.0073	-0.0462	0.0165	0.9585
58.638	0.46319	-1.7312	-0.14081	0.58267	0.25271	-1.5062	-38.6333	764.469	-67.3272	261.0146	87.4823	848.8602	-0.0592	0.0182	-0.0073	-0.0462	0.0165	0.9585
58.6514	0.74532	-0.77851	-0.11167	0.26427	0.31724	-0.57775	-35.4431	750.392	-64.5065	255.8548	82.7163	829.5796	-0.0592	0.0182	-0.0073	-0.0462	0.0165	0.9585
58.6649	0.85844	0.071706	-0.074608	-0.019246	0.31573	0.26152	-32.022	739.5585	-61.9375	251.804	78.1533	813.5839	-0.0592	0.0182	-0.0073	-0.0462	0.0165	0.9585
58.6783	0.86014	0.75219	-0.03502	-0.2453	0.27185	0.93533	-28.5188	732.8374	-59.7688	249.1484	74.013	801.8412	-0.0592	0.0182	-0.0073	-0.0462	0.0165	0.9585
58.6917	0.78651	1.2484	0.0019823	-0.4095	0.20144	1.4335	-25.0545	730.5325	-58.0791	247.9914	70.4231	794.7048	-0.0592	0.0182	-0.0073	-0.0462	0.0165	0.9585
58.7051	0.67085	1.5545	0.041469	-0.51083	0.11267	1.7468	-21.7229	732.4113	-56.8658	248.2618	67.4139	791.9552	-0.0592	0.0182	-0.0073	-0.0462	0.0165	0.9585
58.7186	0.53403	1.6621	0.08687	-0.54581	0.0092677	1.8544	-18.5724	737.7499	-56.0568	249.725	64.9258	792.8524	-0.0592	0.0182	-0.0073	-0.0462	0.0165	0.9585
58.732	0.37949	1.5615	0.1403	-0.50809	-0.10967	1.7348	-15.6221	745.4045	-55.5462	252.0026	62.8537	796.2162	-0.0592	0.0182	-0.0073	-0.0462	0.0165	0.9585
58.7454	0.22596	1.2192	0.21037	-0.38342	-0.25005	1.3367	-12.8692	753.9483	-55.2284	254.6122	61.0873	800.5812	-0.0592	0.0182	-0.0073	-0.0462	0.0165	0.9585
58.7589	0.069688	0.59366	0.29968	-0.15332	-0.41628	0.61199	-10.2892	761.8681	-55.0223	257.0345	59.5295	804.4045	-0.0592	0.0182	-0.0073	-0.0462	0.0165	0.9585
58.7723	-0.079137	-0.36363	0.41289	0.20161	-0.60926	-0.5039	-7.8565	767.8069	-54.8719	258.7978	58.1064	806.3157	-0.0592	0.0182	-0.0073	-0.0462	0.0165	0.9585
58.7857	-0.205	-1.6739	0.53834	0.69099	-0.80898	-2.0367	-5.537	770.7872	-54.7517	259.554	56.7822	805.3424	-0.0592	0.0182	-0.0073	-0.0462	0.0165	0.9585
58.7991	-0.2725	-3.307	0.652	1.303	-0.97051	-3.9441	-3.2915	770.3168	-54.6795	259.1187	55.5658	801.0128	-0.0592	0.0182	-0.0073	-0.0462	0.0165	0.9585
58.8126	-0.21177	-5.13	0.71401	1.9849	-1.0175	-6.0737	-1.0882	766.457	-54.7198	257.4966	54.5133	793.4263	-0.0592	0.0182	-0.0073	-0.0462	0.0165	0.9585
58.826	0.059228	-6.8303	0.66282	2.6177	-0.84206	-8.0641	1.1078	759.8113	-54.9577	254.8827	53.7009	783.2215	-0.0592	0.0182	-0.0073	-0.0462	0.0165	0.9585
58.8394	0.66413	-7.8775	0.41796	2.9957	-0.30402	-9.2991	3.3139	751.4019	-55.4829	251.6213	53.2135	771.4436	-0.0592	0.0182	-0.0073	-0.0462	0.0165	0.9585
